<?xml version="1.0" encoding="utf-8"?>
<!-- Generator: Adobe Illustrator 15.1.0, SVG Export Plug-In . SVG Version: 6.00 Build 0)  -->
<!DOCTYPE svg PUBLIC "-//W3C//DTD SVG 1.1//EN" "http://www.w3.org/Graphics/SVG/1.1/DTD/svg11.dtd">
<svg version="1.1" id="Layer_1" xmlns="http://www.w3.org/2000/svg" xmlns:xlink="http://www.w3.org/1999/xlink" x="0px" y="0px"
	 width="232.5px" height="132px" viewBox="0 0 232.5 132" enable-background="new 0 0 232.5 132" xml:space="preserve">
<ellipse fill="#D41FAA" stroke="#000080" stroke-width="2" stroke-miterlimit="10" cx="115.812" cy="73.694" rx="50" ry="13.14"/>
<path fill="#A31789" d="M155.667,66.917c-2.521-1.208,9.896,3.021,9.167,7.208c0,0-2.333,9.792-40,11.542
	C124.833,85.667,165.507,71.634,155.667,66.917z"/>
<g>
	<path fill="#A31789" stroke="#000080" stroke-width="2" stroke-miterlimit="10" d="M142.754,67.333c0,0,5.583,0.583,5.083,2.333
		s-4.927,1.646-4.927,1.646l-54.094,0.063c0,0-4.531,0.042-5.031-1.708s5.083-2.333,5.083-2.333"/>
	<path fill="#00FFFF" stroke="#000080" stroke-width="2" stroke-miterlimit="10" d="M89.092,70.42
		c0-16.187,12.017-29.31,26.839-29.31s26.839,13.123,26.839,29.31"/>
</g>
<path opacity="0.5" fill="#FFFFFF" d="M97.713,52.692c0,0,16.068-18.136,36.198-0.441l-0.354,0.147
	C133.558,52.398,110.409,44.434,97.713,52.692z"/>
<path opacity="0.2" fill="#000080" d="M98,71.333v-6.999c0-4.694,3.806-8.5,8.5-8.5l0,0c4.694,0,8.5,3.806,8.5,8.5v7.083L98,71.333z
	"/>
<path opacity="0.2" fill="#000080" d="M119,71.083V62c0-4.694,3.806-8.5,8.5-8.5l0,0c4.694,0,8.5,3.806,8.5,8.5v9.25L119,71.083z"/>
<path opacity="0.61" fill="#000080" d="M106.719,60.688c-0.293,0-0.579,0.007-0.86,0.019C105.266,59.69,104.177,59,102.917,59
	c-1.887,0-3.417,1.53-3.417,3.417c0,1.887,1.53,3.417,3.417,3.417c1.269,0,2.363-0.7,2.952-1.727
	c0.279,0.011,0.561,0.018,0.85,0.018c3.435,0,6.219-0.77,6.219-1.719S110.153,60.688,106.719,60.688z"/>
<path opacity="0.61" fill="#000080" d="M127.656,58.125c-0.383,0-0.757,0.011-1.121,0.029c-0.608-0.943-1.663-1.571-2.868-1.571
	c-1.887,0-3.417,1.53-3.417,3.417c0,1.887,1.53,3.417,3.417,3.417c1.33,0,2.469-0.767,3.034-1.876
	c0.312,0.014,0.63,0.022,0.956,0.022c3.435,0,6.219-0.77,6.219-1.719S131.091,58.125,127.656,58.125z"/>
<path fill="#A31789" d="M138,77.917c0,0-78.667,4.667-69.417-7.333c0,0-6.917,4.833,6.75,9.667c0,0,31.583,11.25,74.667,2
	l7.25-13.083C157.25,69.167,157.417,75.75,138,77.917z"/>
<path opacity="0.61" fill="#000080" d="M94.524,64.911c-0.826-0.413-1.671-0.624-2.262-0.565c-0.543,0.055-0.782,0.317-0.887,0.527
	c-0.325,0.648,0.232,1.393,1.073,1.99l-2.542,3.997l0.844,0.536l2.557-4.02c0.822,0.409,1.662,0.617,2.25,0.558
	c0.542-0.055,0.781-0.316,0.887-0.527C96.868,66.558,95.786,65.542,94.524,64.911z M93.742,66.477
	c-0.855-0.428-1.302-0.906-1.423-1.13c0.253-0.036,0.935,0.047,1.758,0.458c0.855,0.428,1.301,0.905,1.422,1.129
	C95.24,66.978,94.564,66.888,93.742,66.477z"/>
</svg>
